<?xml version="1.0" encoding="UTF-8"?>
<svg version="1.1" xmlns="http://www.w3.org/2000/svg" width="128" height="128">
<path d="M0 0 C9.41049206 7.88688858 15.46431013 16.90408101 19.875 28.3125 C20.2153125 29.13621094 20.555625 29.95992187 20.90625 30.80859375 C26.07882375 45.7755317 23.91321875 64.0883026 17.5546875 78.25390625 C9.50461983 94.06811022 -2.61183801 104.92822919 -19.125 111.3125 C-19.94871094 111.6528125 -20.77242188 111.993125 -21.62109375 112.34375 C-36.5880317 117.51632375 -54.9008026 115.35071875 -69.06640625 108.9921875 C-84.88061022 100.94211983 -95.74072919 88.82566199 -102.125 72.3125 C-102.4653125 71.48878906 -102.805625 70.66507812 -103.15625 69.81640625 C-108.32882375 54.8494683 -106.16321875 36.5366974 -99.8046875 22.37109375 C-91.75461983 6.55688978 -79.63816199 -4.30322919 -63.125 -10.6875 C-62.30128906 -11.0278125 -61.47757813 -11.368125 -60.62890625 -11.71875 C-39.97348449 -18.85726376 -16.88231997 -12.70069918 0 0 Z " fill="#935CC1" transform="translate(105.125,13.6875)"/>
<path d="M0 0 C0.87978516 -0.01998047 1.75957031 -0.03996094 2.66601562 -0.06054688 C6.42168485 -0.05769519 8.95991434 0.02740626 12.265625 1.890625 C14.42368012 5.75615229 14.22953749 9.27151943 14.125 13.625 C14.13208984 14.43775391 14.13917969 15.25050781 14.14648438 16.08789062 C14.0165277 28.6537018 8.29116366 39.28852138 -0.50390625 48.0625 C-2.64526541 49.69048795 -4.78798145 50.5398934 -7.3125 51.4375 C-7.28929688 52.59507813 -7.26609375 53.75265625 -7.2421875 54.9453125 C-7.22341852 56.48436851 -7.20521954 58.02343155 -7.1875 59.5625 C-7.17074219 60.32304688 -7.15398437 61.08359375 -7.13671875 61.8671875 C-7.09703754 66.47020731 -7.55342423 70.10214004 -9.3125 74.4375 C-8.301875 74.540625 -7.29125 74.64375 -6.25 74.75 C-2.88811155 75.3369964 -0.34979493 76.22418059 2.73657227 77.59301758 C6.14808492 79.06973166 9.64004628 80.33368595 13.125 81.625 C13.85654297 81.89763672 14.58808594 82.17027344 15.34179688 82.45117188 C17.12313061 83.11480601 18.90523476 83.7763716 20.6875 84.4375 C9.58383335 95.86944897 -5.1293388 102.55590986 -21.12768555 102.81787109 C-40.92848052 102.78002093 -55.13938921 97.40540814 -70.3125 84.4375 C-68.3325 83.9425 -68.3325 83.9425 -66.3125 83.4375 C-66.3125 82.7775 -66.3125 82.1175 -66.3125 81.4375 C-51.22179338 76.64710003 -51.22179338 76.64710003 -44.125 74.625 C-42.89716797 74.27501953 -42.89716797 74.27501953 -41.64453125 73.91796875 C-39.14282154 73.40254112 -36.85980337 73.35153417 -34.3125 73.4375 C-34.3125 70.4675 -34.3125 67.4975 -34.3125 64.4375 C-34.95316406 64.59089844 -35.59382813 64.74429688 -36.25390625 64.90234375 C-43.07352341 66.13211078 -43.07352341 66.13211078 -46.53515625 64.19140625 C-49.88223757 61.10549349 -51.20085077 59.27486921 -51.8125 54.6875 C-51.3125 51.4375 -51.3125 51.4375 -50.3125 48.4375 C-52.20935547 48.47230469 -52.20935547 48.47230469 -54.14453125 48.5078125 C-55.8046816 48.52657126 -57.46483833 48.54477135 -59.125 48.5625 C-59.95837891 48.57925781 -60.79175781 48.59601563 -61.65039062 48.61328125 C-62.85405273 48.62294922 -62.85405273 48.62294922 -64.08203125 48.6328125 C-65.18961792 48.64852295 -65.18961792 48.64852295 -66.31958008 48.66455078 C-68.3125 48.4375 -68.3125 48.4375 -71.3125 46.4375 C-70.84743282 40.74042709 -68.56073056 36.95098289 -65.5625 32.25 C-64.91667969 31.18362305 -64.91667969 31.18362305 -64.2578125 30.09570312 C-61.78784544 26.16520166 -59.8113656 23.10941885 -55.3125 21.4375 C-52.1938233 21.11201238 -49.13096256 21.15362467 -46 21.25 C-44.74606445 21.27030273 -44.74606445 21.27030273 -43.46679688 21.29101562 C-41.41508502 21.32618783 -39.36370725 21.37998952 -37.3125 21.4375 C-36.92964844 20.32375 -36.92964844 20.32375 -36.5390625 19.1875 C-33.09705188 11.47038064 -24.91580505 5.8279885 -17.30957031 2.58300781 C-11.46066748 0.48694759 -6.18824175 -0.05098926 0 0 Z " fill="#FDFDFE" transform="translate(88.3125,25.5625)"/>
<path d="M0 0 C0.66 0.33 1.32 0.66 2 1 C1.01 1.33 0.02 1.66 -1 2 C-1 2.66 -1 3.32 -1 4 C0.12148438 4.05607422 0.12148438 4.05607422 1.265625 4.11328125 C2.74289062 4.21189453 2.74289062 4.21189453 4.25 4.3125 C5.22453125 4.37050781 6.1990625 4.42851563 7.203125 4.48828125 C10.25341611 5.04636524 11.70711276 5.96369776 14 8 C13.34 9.32 12.68 10.64 12 12 C11.34 12 10.68 12 10 12 C10 12.66 10 13.32 10 14 C8.26493423 15.41986706 6.48583126 16.78616454 4.6875 18.125 C-0.34612352 22.11696107 -2.53093253 24.78471455 -4 31 C0.62 30.67 5.24 30.34 10 30 C9.67 32.31 9.34 34.62 9 37 C11.23647631 38.11823815 12.64891529 38.19396061 15.1328125 38.31640625 C15.93847656 38.35830078 16.74414062 38.40019531 17.57421875 38.44335938 C18.83685547 38.50233398 18.83685547 38.50233398 20.125 38.5625 C21.39923828 38.62727539 21.39923828 38.62727539 22.69921875 38.69335938 C24.79928223 38.79954236 26.89961948 38.90028497 29 39 C28.93039063 39.65226562 28.86078125 40.30453125 28.7890625 40.9765625 C28.50839304 45.50736946 28.3125835 49.04644588 31.375 52.625 C34.95355412 55.6874165 38.49263054 55.49160696 43.0234375 55.2109375 C44.00183594 55.10652344 44.00183594 55.10652344 45 55 C45 57.97 45 60.94 45 64 C43.99582031 64.24234375 42.99164063 64.4846875 41.95703125 64.734375 C34.06524921 66.66151696 26.30064452 68.7450846 18.57421875 71.265625 C16 72 16 72 13 72 C13 72.66 13 73.32 13 74 C10.78125 74.33203125 10.78125 74.33203125 8 74 C1.55514623 67.67653902 -2.87160616 59.39145643 -6 51 C-6.31839844 50.22140625 -6.63679687 49.4428125 -6.96484375 48.640625 C-11.45137861 35.65655178 -10.21808623 19.65594459 -6.36328125 6.6796875 C-4.75265098 3.51380679 -2.89431005 2.00633765 0 0 Z " fill="#9F65BD" transform="translate(9,35)"/>
<path d="M0 0 C0.66 0 1.32 0 2 0 C2.495 10.395 2.495 10.395 3 21 C8.5738358 20.23783829 8.5738358 20.23783829 12.62890625 17.57421875 C22.85524346 10.01015269 22.85524346 10.01015269 28.30078125 9.984375 C31.72230492 11.04517776 34.77447414 12.43903123 38 14 C40.42797128 14.96657357 42.87098636 15.88675287 45.31689453 16.80688477 C48.89622923 18.15955253 52.44678467 19.58030902 56 21 C44.89633335 32.43194897 30.1831612 39.11840986 14.18481445 39.38037109 C-5.61598052 39.34252093 -19.82688921 33.96790814 -35 21 C-33.68 20.67 -32.36 20.34 -31 20 C-31 19.34 -31 18.68 -31 18 C-15.90929338 13.20960003 -15.90929338 13.20960003 -8.8125 11.1875 C-7.99394531 10.95417969 -7.17539062 10.72085938 -6.33203125 10.48046875 C-4 10 -4 10 1 10 C0.67 6.7 0.34 3.4 0 0 Z " fill="#DED8ED" transform="translate(53,89)"/>
<path d="M0 0 C8.02469784 6.03704191 15.6371544 13.35884726 18.4140625 23.22265625 C15.45231127 22.60988013 14.03347467 21.96893103 11.4140625 20.22265625 C11.4140625 19.56265625 11.4140625 18.90265625 11.4140625 18.22265625 C10.6921875 17.94035156 9.9703125 17.65804688 9.2265625 17.3671875 C6.57910524 16.28981948 4.00243525 15.12148313 1.4140625 13.91015625 C-2.74467951 12.02388969 -6.91907451 10.19536018 -11.1484375 8.47265625 C-12.13972656 8.0653125 -13.13101563 7.65796875 -14.15234375 7.23828125 C-32.24844855 1.88562226 -54.14047677 3.7102105 -71.5859375 10.22265625 C-73.39964844 10.73505859 -73.39964844 10.73505859 -75.25 11.2578125 C-78.84039336 12.2962518 -82.01569306 13.7134238 -85.375 15.3203125 C-87.76154168 16.29432509 -90.04981833 16.79107106 -92.5859375 17.22265625 C-83.84267486 2.41054072 -70.65833102 -5.49009503 -54.5859375 -10.77734375 C-35.30423802 -15.19327124 -16.12769625 -11.08474591 0 0 Z " fill="#DBD5ED" transform="translate(102.5859375,11.77734375)"/>
<path d="M0 0 C0.495 1.485 0.495 1.485 1 3 C-0.11117187 3.15855469 -1.22234375 3.31710938 -2.3671875 3.48046875 C-16.33568216 5.60867194 -26.09457843 9.3857501 -36 20 C-36.40605469 20.90492187 -36.81210937 21.80984375 -37.23046875 22.7421875 C-39 25 -39 25 -40.83666992 25.44042969 C-43.19341655 25.61164078 -45.51218704 25.64753876 -47.875 25.625 C-55.46854923 25.47733439 -55.46854923 25.47733439 -62 29 C-63.56141852 31.24124959 -63.56141852 31.24124959 -64.8125 33.6875 C-67.38109317 37.83212292 -67.38109317 37.83212292 -70.16015625 38.5859375 C-72.375 38.5625 -72.375 38.5625 -76 38 C-75.72482232 33.32197941 -73.66806114 31.25361247 -70.47265625 28.13671875 C-69 27 -69 27 -67 27 C-67 26.34 -67 25.68 -67 25 C-65.04414675 23.99515796 -63.08523763 22.99626195 -61.125 22 C-60.03445312 21.443125 -58.94390625 20.88625 -57.8203125 20.3125 C-55 19 -55 19 -53 19 C-52.67 17.68 -52.34 16.36 -52 15 C-52.66 15 -53.32 15 -54 15 C-54 14.34 -54 13.68 -54 13 C-58.95 13 -63.9 13 -69 13 C-68.34 12.34 -67.68 11.68 -67 11 C-67.66 10.34 -68.32 9.68 -69 9 C-67.51120389 5.97244818 -66.58749206 4.30027372 -63.5390625 2.7421875 C-60.36657423 1.79809582 -57.19186591 0.87663923 -54 0 C-53.08734375 -0.30164063 -52.1746875 -0.60328125 -51.234375 -0.9140625 C-35.20310301 -5.60080049 -15.9778584 -4.4295053 0 0 Z " fill="#7751D3" transform="translate(90,22)"/>
<path d="M0 0 C0 0.66 0 1.32 0 2 C-2.1060986 1.74462428 -4.20988754 1.47014626 -6.3125 1.1875 C-7.48425781 1.03667969 -8.65601562 0.88585938 -9.86328125 0.73046875 C-13 0 -13 0 -14.4375 -1.53125 C-17.01988829 -3.95869499 -20.31149306 -3.57717298 -23.6875 -3.6875 C-24.7403418 -3.73874023 -24.7403418 -3.73874023 -25.81445312 -3.79101562 C-27.54241387 -3.87329947 -29.27118072 -3.9383324 -31 -4 C-31 -4.33 -31 -4.66 -31 -5 C-28.36 -5 -25.72 -5 -23 -5 C-23.84212537 -7.26705168 -23.84212537 -7.26705168 -26.46484375 -7.8515625 C-42.93070903 -11.51887558 -61.84608094 -12.3542609 -78 -7 C-79.66482422 -6.53013672 -79.66482422 -6.53013672 -81.36328125 -6.05078125 C-87.19046872 -4.6982735 -87.19046872 -4.6982735 -91.33203125 -0.87109375 C-91.55246094 -0.25363281 -91.77289063 0.36382812 -92 1 C-91.01 2.485 -91.01 2.485 -90 4 C-87.11404054 4.58481121 -87.11404054 4.58481121 -83.875 4.6875 C-82.77929688 4.75324219 -81.68359375 4.81898437 -80.5546875 4.88671875 C-79.71164063 4.92410156 -78.86859375 4.96148437 -78 5 C-78 5.66 -78 6.32 -78 7 C-77.34 7 -76.68 7 -76 7 C-76.12890625 8.796875 -76.12890625 8.796875 -77 11 C-79.65234375 12.703125 -79.65234375 12.703125 -82.9375 14.25 C-84.01902344 14.77078125 -85.10054687 15.2915625 -86.21484375 15.828125 C-89 17 -89 17 -91 17 C-91 17.66 -91 18.32 -91 19 C-92.4609375 20.33203125 -92.4609375 20.33203125 -94.375 21.8125 C-97.37268463 24.27726291 -98.9810019 26.15045162 -100 30 C-97.36 30 -94.72 30 -92 30 C-94.4625624 34.80199667 -94.4625624 34.80199667 -96.78125 35.65625 C-99.30593957 36.04739909 -101.6958789 36.09610686 -104.25 36.0625 C-105.14203125 36.05347656 -106.0340625 36.04445312 -106.953125 36.03515625 C-107.62859375 36.02355469 -108.3040625 36.01195312 -109 36 C-108.62028696 30.55744649 -107.02224517 28.57532904 -103 25 C-101.93358896 23.89961017 -100.87110436 22.79540211 -99.8125 21.6875 C-97 19 -97 19 -95 19 C-95 18.34 -95 17.68 -95 17 C-94.34 17 -93.68 17 -93 17 C-92.67 15.68 -92.34 14.36 -92 13 C-95.03260897 10.97826068 -96.08690037 10.70661562 -99.5625 10.4375 C-103.80821918 10.09589041 -103.80821918 10.09589041 -106 9 C-106 7 -106 7 -105 6 C-105.66 6 -106.32 6 -107 6 C-107.33 6.99 -107.66 7.98 -108 9 C-109 7 -109 7 -108.43359375 5.125 C-105.71933086 -0.66542751 -105.71933086 -0.66542751 -102.3125 -2.25 C-100.6728125 -2.62125 -100.6728125 -2.62125 -99 -3 C-96.78928467 -3.95205989 -94.61842944 -4.97363179 -92.44140625 -6 C-89.3579394 -7.26298802 -86.20540125 -8.09197366 -83 -9 C-81.86046875 -9.42539062 -80.7209375 -9.85078125 -79.546875 -10.2890625 C-51.84887168 -20.33092406 -24.94274064 -12.90362578 0 0 Z " fill="#8B5DCA" transform="translate(114,30)"/>
<path d="M0 0 C2.18739646 0.93047502 2.18739646 0.93047502 4.32421875 1.18359375 C7.25146845 2.21639354 8.23853578 4.14520492 9.94921875 6.6796875 C10.55121094 7.55238281 11.15320313 8.42507812 11.7734375 9.32421875 C13.09903703 11.58921952 13.81403798 13.30645347 14.26171875 15.8671875 C11.29996752 15.25441138 9.88113092 14.61346228 7.26171875 12.8671875 C7.26171875 12.2071875 7.26171875 11.5471875 7.26171875 10.8671875 C6.53984375 10.58488281 5.81796875 10.30257813 5.07421875 10.01171875 C2.42676149 8.93435073 -0.1499085 7.76601438 -2.73828125 6.5546875 C-6.89702326 4.66842094 -11.07141826 2.83989143 -15.30078125 1.1171875 C-16.29207031 0.70984375 -17.28335938 0.3025 -18.3046875 -0.1171875 C-36.4007923 -5.46984649 -58.29282052 -3.64525825 -75.73828125 2.8671875 C-76.94742188 3.20878906 -78.1565625 3.55039062 -79.40234375 3.90234375 C-82.99273711 4.94078305 -86.16803681 6.35795505 -89.52734375 7.96484375 C-91.91388543 8.93885634 -94.20216208 9.43560231 -96.73828125 9.8671875 C-94.5836792 4.94697685 -92.34183039 1.64346394 -87.421875 -0.73828125 C-83.59124352 -2.10453479 -79.677378 -3.13288794 -75.73828125 -4.1328125 C-74.64 -4.43960937 -73.54171875 -4.74640625 -72.41015625 -5.0625 C-48.40575343 -11.52522384 -22.76908107 -9.45961822 0 0 Z " fill="#C7BFEC" transform="translate(106.73828125,19.1328125)"/>
<path d="M0 0 C3.63 0 7.26 0 11 0 C11 2.97 11 5.94 11 9 C9.49373047 9.36351563 9.49373047 9.36351563 7.95703125 9.734375 C0.06524921 11.66151696 -7.69935548 13.7450846 -15.42578125 16.265625 C-18 17 -18 17 -21 17 C-21 17.66 -21 18.32 -21 19 C-23.19921875 19.3671875 -23.19921875 19.3671875 -26 19 C-27.87554843 17.04990672 -29.30041429 15.32393995 -30.8125 13.125 C-31.21919922 12.56941406 -31.62589844 12.01382813 -32.04492188 11.44140625 C-35 7.31919643 -35 7.31919643 -35 5 C-27.27791119 1.26350541 -18.31710155 1.86169289 -9.9375 1.9375 C-8.97650391 1.94201172 -8.01550781 1.94652344 -7.02539062 1.95117188 C-4.68352578 1.96282294 -2.34179819 1.97917975 0 2 C0 1.34 0 0.68 0 0 Z " fill="#9E69C2" transform="translate(43,90)"/>
<path d="M0 0 C0.5775 0.309375 1.155 0.61875 1.75 0.9375 C3.88540107 2.1041373 3.88540107 2.1041373 5.97265625 2.17578125 C8 3 8 3 9.44921875 5.765625 C9.85785156 6.91546875 10.26648438 8.0653125 10.6875 9.25 C11.10386719 10.38953125 11.52023438 11.5290625 11.94921875 12.703125 C14.00741035 19.16079679 14.18303584 25.08501295 14.1875 31.8125 C14.19974609 32.77220703 14.21199219 33.73191406 14.22460938 34.72070312 C14.23645639 40.50599537 13.66051663 45.45400571 12 51 C7.40040149 50.72943538 5.275978 48.74396837 2.13671875 45.66796875 C1 44 1 44 1 40 C1.99 39.34 2.98 38.68 4 38 C3.01 37.67 2.02 37.34 1 37 C1 36.34 1 35.68 1 35 C-0.9490625 34.814375 -0.9490625 34.814375 -2.9375 34.625 C-5.15234375 34.4140625 -5.15234375 34.4140625 -7 34 C-7.33 33.34 -7.66 32.68 -8 32 C-3.38 32 1.24 32 6 32 C6.02118918 26.5833143 6.02118918 26.5833143 2.6875 23 C-2.4768298 17.42713296 -2.4768298 17.42713296 -4 14 C-3.6875 11.6875 -3.6875 11.6875 -3 10 C-1.02 10 0.96 10 3 10 C3.86850174 7.75124253 3.86850174 7.75124253 4 5 C2.1687189 2.18900586 2.1687189 2.18900586 0 0 Z " fill="#9C5DB8" transform="translate(114,32)"/>
<path d="M0 0 C2.95702657 1.83054026 4.57532323 3.84329581 6.625 6.625 C7.285 6.955 7.945 7.285 8.625 7.625 C9.375 9.5625 9.375 9.5625 9.625 11.625 C6.76785086 14.48214914 4.70219114 14.61111472 0.70825195 14.66259766 C-0.94750854 14.60144775 -0.94750854 14.60144775 -2.63671875 14.5390625 C-4.43786133 14.47332031 -4.43786133 14.47332031 -6.27539062 14.40625 C-7.52513672 14.3546875 -8.77488281 14.303125 -10.0625 14.25 C-11.95452148 14.18425781 -11.95452148 14.18425781 -13.88476562 14.1171875 C-23.24575893 13.75424107 -23.24575893 13.75424107 -24.375 12.625 C-25.00510637 9.17565482 -25.1118534 6.06018979 -24.375 2.625 C-16.82013495 -6.19486571 -9.5886535 -3.90648846 0 0 Z " fill="#8152CA" transform="translate(105.375,74.375)"/>
<path d="M0 0 C0 0.66 0 1.32 0 2 C-2.1060986 1.74462428 -4.20988754 1.47014626 -6.3125 1.1875 C-7.48425781 1.03667969 -8.65601562 0.88585938 -9.86328125 0.73046875 C-13 0 -13 0 -14.4375 -1.53125 C-17.01988829 -3.95869499 -20.31149306 -3.57717298 -23.6875 -3.6875 C-24.7403418 -3.73874023 -24.7403418 -3.73874023 -25.81445312 -3.79101562 C-27.54241387 -3.87329947 -29.27118072 -3.9383324 -31 -4 C-31 -4.33 -31 -4.66 -31 -5 C-28.36 -5 -25.72 -5 -23 -5 C-23.84212537 -7.26705168 -23.84212537 -7.26705168 -26.46484375 -7.8515625 C-42.91753681 -11.51594183 -61.86147534 -12.37182321 -78 -7 C-79.00546875 -6.70996094 -80.0109375 -6.41992188 -81.046875 -6.12109375 C-88.96694992 -3.71893905 -96.59302826 -0.39179432 -103.1875 4.68359375 C-105 6 -105 6 -107 6 C-107.33 6.99 -107.66 7.98 -108 9 C-109 7 -109 7 -108.43359375 5.125 C-105.71933086 -0.66542751 -105.71933086 -0.66542751 -102.3125 -2.25 C-100.6728125 -2.62125 -100.6728125 -2.62125 -99 -3 C-96.78928467 -3.95205989 -94.61842944 -4.97363179 -92.44140625 -6 C-89.3579394 -7.26298802 -86.20540125 -8.09197366 -83 -9 C-81.86046875 -9.42539062 -80.7209375 -9.85078125 -79.546875 -10.2890625 C-51.84887168 -20.33092406 -24.94274064 -12.90362578 0 0 Z " fill="#9386EA" transform="translate(114,30)"/>
<path d="M0 0 C4.08407827 0.08217187 8.16680088 0.19488611 12.25 0.3125 C13.38953125 0.33505859 14.5290625 0.35761719 15.703125 0.38085938 C23.49005104 0.62420081 30.52848009 1.79482843 38 4 C36.66578436 7.49665192 35.38931202 10.02489319 32.875 12.8125 C32.33617187 13.41707031 31.79734375 14.02164063 31.2421875 14.64453125 C30.83226563 15.09183594 30.42234375 15.53914063 30 16 C25.22307777 15.21501478 20.75834922 13.67252121 16.1875 12.125 C15.41857422 11.86847656 14.64964844 11.61195312 13.85742188 11.34765625 C8.862359 9.66998956 3.92420262 7.87535197 -1 6 C-0.67 4.02 -0.34 2.04 0 0 Z " fill="#A872C0" transform="translate(80,94)"/>
<path d="M0 0 C0 0.33 0 0.66 0 1 C-1.16917969 1.19335938 -2.33835938 1.38671875 -3.54296875 1.5859375 C-5.09119532 1.84866686 -6.6393697 2.11170392 -8.1875 2.375 C-8.95642578 2.50132813 -9.72535156 2.62765625 -10.51757812 2.7578125 C-11.26845703 2.88671875 -12.01933594 3.015625 -12.79296875 3.1484375 C-13.82200317 3.32125244 -13.82200317 3.32125244 -14.87182617 3.49755859 C-17.06854574 3.93976992 -17.06854574 3.93976992 -19.2265625 5.04101562 C-23.00885416 6.34883619 -26.63121221 6.24736278 -30.58203125 6.1953125 C-31.39621017 6.1924826 -32.2103891 6.18965271 -33.04924011 6.18673706 C-35.637146 6.17558584 -38.22469958 6.15049083 -40.8125 6.125 C-42.57226061 6.11496365 -44.33202667 6.10583894 -46.09179688 6.09765625 C-50.39466598 6.0756631 -54.69727336 6.04116836 -59 6 C-54.51035815 0.17661517 -54.51035815 0.17661517 -50 -1 C-47.40383056 -1.31580576 -44.8153189 -1.56229291 -42.20703125 -1.75390625 C-27.79874746 -3.36049365 -14.46260223 -3.48097016 0 0 Z " fill="#694BDC" transform="translate(91,24)"/>
<path d="M0 0 C1.39456452 0.00667256 2.78911118 0.01863093 4.18359375 0.03515625 C4.89451172 0.03966797 5.60542969 0.04417969 6.33789062 0.04882812 C8.09899388 0.06064761 9.86005411 0.07858362 11.62109375 0.09765625 C11.60949219 0.773125 11.59789063 1.44859375 11.5859375 2.14453125 C11.57691406 3.0365625 11.56789063 3.92859375 11.55859375 4.84765625 C11.54699219 5.729375 11.53539063 6.61109375 11.5234375 7.51953125 C11.61283177 9.87954005 11.95196554 11.84264149 12.62109375 14.09765625 C7.74751554 15.35373311 2.93024746 15.28139087 -2.06640625 15.28515625 C-3.36674805 15.30352539 -3.36674805 15.30352539 -4.69335938 15.32226562 C-5.52158203 15.32419922 -6.34980469 15.32613281 -7.203125 15.328125 C-8.3336731 15.33428833 -8.3336731 15.33428833 -9.48706055 15.34057617 C-11.37890625 15.09765625 -11.37890625 15.09765625 -13.37890625 13.09765625 C-13.21344515 9.93321269 -12.71628719 8.46703021 -10.56640625 6.11328125 C-9.84453125 5.530625 -9.12265625 4.94796875 -8.37890625 4.34765625 C-7.65703125 3.7546875 -6.93515625 3.16171875 -6.19140625 2.55078125 C-5.59328125 2.07125 -4.99515625 1.59171875 -4.37890625 1.09765625 C-3.37890625 0.09765625 -3.37890625 0.09765625 0 0 Z " fill="#8353C8" transform="translate(26.37890625,73.90234375)"/>
<path d="M0 0 C1.06831055 0.00966797 1.06831055 0.00966797 2.15820312 0.01953125 C7.62040522 0.09862196 13.02091409 0.45834421 18.4375 1.1875 C18.4375 2.1775 18.4375 3.1675 18.4375 4.1875 C16.7875 4.5175 15.1375 4.8475 13.4375 5.1875 C13.1075 6.1775 12.7775 7.1675 12.4375 8.1875 C11.7775 8.1875 11.1175 8.1875 10.4375 8.1875 C10.4375 8.8475 10.4375 9.5075 10.4375 10.1875 C9.49648438 10.66058594 8.55546875 11.13367187 7.5859375 11.62109375 C0.40139521 15.38763482 -4.18505608 18.17289124 -8.1875 25.46484375 C-9.5625 27.1875 -9.5625 27.1875 -11.6875 27.75390625 C-13.9375 27.75 -13.9375 27.75 -17.5625 27.1875 C-17.28732232 22.50947941 -15.23056114 20.44111247 -12.03515625 17.32421875 C-10.5625 16.1875 -10.5625 16.1875 -8.5625 16.1875 C-8.5625 15.5275 -8.5625 14.8675 -8.5625 14.1875 C-6.60664675 13.18265796 -4.64773763 12.18376195 -2.6875 11.1875 C-1.59695312 10.630625 -0.50640625 10.07375 0.6171875 9.5 C3.4375 8.1875 3.4375 8.1875 5.4375 8.1875 C5.7675 6.8675 6.0975 5.5475 6.4375 4.1875 C5.7775 4.1875 5.1175 4.1875 4.4375 4.1875 C4.4375 3.5275 4.4375 2.8675 4.4375 2.1875 C-0.5125 2.1875 -5.4625 2.1875 -10.5625 2.1875 C-6.91221205 -0.2460253 -4.21326719 -0.07780734 0 0 Z " fill="#7F52CB" transform="translate(31.5625,32.8125)"/>
<path d="M0 0 C11.31061517 -0.18733938 22.2489278 1.07313728 33.1484375 4.125 C33.1484375 4.785 33.1484375 5.445 33.1484375 6.125 C33.74011719 6.23457031 34.33179687 6.34414063 34.94140625 6.45703125 C39.61811201 7.39542409 43.11877947 8.47693901 47.1484375 11.125 C49.33974284 11.82079454 49.33974284 11.82079454 51.1484375 12.125 C51.1484375 12.785 51.1484375 13.445 51.1484375 14.125 C54.1184375 14.62 54.1184375 14.62 57.1484375 15.125 C58.1384375 18.095 58.1384375 18.095 59.1484375 21.125 C56.18668627 20.51222388 54.76784967 19.87127478 52.1484375 18.125 C52.1484375 17.465 52.1484375 16.805 52.1484375 16.125 C51.065625 15.70154297 51.065625 15.70154297 49.9609375 15.26953125 C47.31348024 14.19216323 44.73681025 13.02382688 42.1484375 11.8125 C37.98969549 9.92623344 33.81530049 8.09770393 29.5859375 6.375 C28.59464844 5.96765625 27.60335937 5.5603125 26.58203125 5.140625 C8.48592645 -0.21203399 -13.40610177 1.61255425 -30.8515625 8.125 C-32.06070313 8.46660156 -33.26984375 8.80820312 -34.515625 9.16015625 C-37.34799013 9.97935319 -39.8268896 10.92047459 -42.4765625 12.1875 C-45.5940594 13.62101567 -48.41824076 14.68199074 -51.8515625 15.125 C-43.57563719 5.07566212 -30.23162089 2.24261691 -17.86523438 0.91113281 C-11.91726857 0.36168729 -5.96888037 0.1937162 0 0 Z " fill="#A89CEA" transform="translate(61.8515625,13.875)"/>
<path d="M0 0 C-0.93274109 1.12894876 -1.87140122 2.25300876 -2.8125 3.375 C-3.33457031 4.00148438 -3.85664063 4.62796875 -4.39453125 5.2734375 C-6 7 -6 7 -9 9 C-9.72382467 11.05925139 -9.72382467 11.05925139 -10 13 C-6.94080612 14.01973129 -4.87581975 14.11533602 -1.67578125 14.09765625 C-0.13374023 14.09282227 -0.13374023 14.09282227 1.43945312 14.08789062 C2.51130859 14.07951172 3.58316406 14.07113281 4.6875 14.0625 C5.77095703 14.05798828 6.85441406 14.05347656 7.97070312 14.04882812 C10.64719085 14.03703743 13.32356777 14.02058063 16 14 C16.33 13.34 16.66 12.68 17 12 C18.5 13.3125 18.5 13.3125 20 15 C20 15.99 20 16.98 20 18 C19.410979 18.02505615 18.82195801 18.0501123 18.21508789 18.07592773 C15.49741329 18.19332361 12.77996658 18.31538715 10.0625 18.4375 C9.13630859 18.47681641 8.21011719 18.51613281 7.25585938 18.55664062 C-0.57681997 18.91392074 -8.27761953 19.61393171 -16 21 C-19 15.72 -19 15.72 -19 12.9375 C-15.62558306 6.39956717 -7.52041228 -0.56141967 0 0 Z " fill="#925BC1" transform="translate(23,74)"/>
<path d="M0 0 C6.85077833 0.69848306 11.21741209 1.66089451 15.875 7.25 C16.24625 7.8275 16.6175 8.405 17 9 C16.375 10.9375 16.375 10.9375 15 13 C11.875 13.75 11.875 13.75 9 14 C9.53115106 18.51478398 11.36620292 21.34666857 14 25 C8.32947518 24.02301793 3.52496332 22.81293069 0 18 C-1.16618331 12.0972533 -0.50509215 5.94886315 0 0 Z " fill="#9563C6" transform="translate(102,29)"/>
<path d="M0 0 C0.5775 0.309375 1.155 0.61875 1.75 0.9375 C3.88540107 2.1041373 3.88540107 2.1041373 5.97265625 2.17578125 C8 3 8 3 9.44921875 5.765625 C9.85785156 6.91546875 10.26648438 8.0653125 10.6875 9.25 C11.10386719 10.38953125 11.52023438 11.5290625 11.94921875 12.703125 C13.37649814 17.18128039 14.13261083 21.11507459 14.0625 25.8125 C14.05347656 26.60269531 14.04445312 27.39289062 14.03515625 28.20703125 C14.02355469 28.79871094 14.01195312 29.39039062 14 30 C13.05125 29.175 12.1025 28.35 11.125 27.5 C8.91323464 25.58283453 6.68141791 23.75965793 4.34375 21.99609375 C3.4465625 21.31675781 2.549375 20.63742188 1.625 19.9375 C0.77164063 19.30714844 -0.08171875 18.67679688 -0.9609375 18.02734375 C-3.32532717 15.67654252 -3.78905301 14.29188335 -4 11 C-3 10 -3 10 0.0625 9.9375 C1.5165625 9.9684375 1.5165625 9.9684375 3 10 C3.86850174 7.75124253 3.86850174 7.75124253 4 5 C2.1687189 2.18900586 2.1687189 2.18900586 0 0 Z " fill="#9F6AC2" transform="translate(114,32)"/>
<path d="M0 0 C0 2.31 0 4.62 0 7 C-0.81984375 7.12117188 -1.6396875 7.24234375 -2.484375 7.3671875 C-3.56203125 7.53476563 -4.6396875 7.70234375 -5.75 7.875 C-7.35101563 8.11863281 -7.35101563 8.11863281 -8.984375 8.3671875 C-11.7103464 8.93921777 -13.58062457 9.68928911 -16 11 C-17.7015625 11.4640625 -17.7015625 11.4640625 -19.4375 11.9375 C-22.98834293 12.80658977 -22.98834293 12.80658977 -25.625 14.75 C-28 16 -28 16 -30.625 15.4375 C-33.15610985 13.90551246 -34.42811658 12.48192119 -36 10 C-34.68 10 -33.36 10 -32 10 C-32 9.34 -32 8.68 -32 8 C-16.90929338 3.20960003 -16.90929338 3.20960003 -9.8125 1.1875 C-8.99394531 0.95417969 -8.17539062 0.72085938 -7.33203125 0.48046875 C-4.83032154 -0.03495888 -2.54730337 -0.08596583 0 0 Z " fill="#C29BCE" transform="translate(54,99)"/>
<path d="M0 0 C9.64282614 3.16501446 19.07306912 6.80142671 28.49609375 10.56640625 C26.26675126 13.31021239 25.1491057 14.47073649 21.58984375 14.9921875 C18.1228261 14.51503482 16.01774695 13.49814707 12.99609375 11.75390625 C6.32127912 8.2068628 -0.07066358 6.81994126 -7.50390625 5.56640625 C-5.90287713 1.87172366 -4.48035172 -0.77584874 0 0 Z " fill="#D1BBDE" transform="translate(80.50390625,99.43359375)"/>
<path d="M0 0 C0.33 0.99 0.66 1.98 1 3 C1.98097656 2.98839844 2.96195312 2.97679688 3.97265625 2.96484375 C30.92298484 2.73936023 30.92298484 2.73936023 40 7 C39.34 8.65 38.68 10.3 38 12 C37.35160156 11.79503906 36.70320313 11.59007813 36.03515625 11.37890625 C24.23489048 8.13809738 12.16259609 8.2573267 0 8 C0 5.36 0 2.72 0 0 Z " fill="#9B65C1" transform="translate(81,87)"/>
<path d="M0 0 C0.495 0.99 0.495 0.99 1 2 C-3.25601882 2.15200067 -6.4264217 2.16002458 -10.5703125 1.00390625 C-15.81787356 -0.37471105 -20.9814975 -0.25536526 -26.375 -0.1875 C-27.86966797 -0.1865332 -27.86966797 -0.1865332 -29.39453125 -0.18554688 C-34.35952801 -0.35553632 -34.35952801 -0.35553632 -39 1 C-40.43608972 1.10486659 -41.87409615 1.18408297 -43.3125 1.25 C-52.07302858 2.05219956 -60.34776794 5.23309272 -67 11 C-67.66 10.34 -68.32 9.68 -69 9 C-67.51120389 5.97244818 -66.58749206 4.30027372 -63.5390625 2.7421875 C-60.36657423 1.79809582 -57.19186591 0.87663923 -54 0 C-53.08734375 -0.30164063 -52.1746875 -0.60328125 -51.234375 -0.9140625 C-35.85207665 -5.41107322 -15.22579414 -5.26025851 0 0 Z " fill="#7760E1" transform="translate(90,22)"/>
<path d="M0 0 C0 0.66 0 1.32 0 2 C-1.00417969 2.24234375 -2.00835937 2.4846875 -3.04296875 2.734375 C-10.93475079 4.66151696 -18.69935548 6.7450846 -26.42578125 9.265625 C-29 10 -29 10 -32 10 C-32 10.66 -32 11.32 -32 12 C-34.25 12.3125 -34.25 12.3125 -37 12 C-41 7.89189189 -41 7.89189189 -41 5 C-37.53646949 3.96938848 -34.22578399 3.79803539 -30.625 3.625 C-24.29012977 3.22289065 -18.39344966 2.06593927 -12.22265625 0.6328125 C-8.03370405 -0.18974539 -4.25222969 -0.21994292 0 0 Z " fill="#B582C3" transform="translate(54,97)"/>
<path d="M0 0 C4.05272458 -0.0250883 8.10541786 -0.04303967 12.15820312 -0.05493164 C13.53125803 -0.05989951 14.90430782 -0.0666761 16.27734375 -0.07543945 C40.84800275 -0.22810802 40.84800275 -0.22810802 47.99609375 3.890625 C50.32625678 5.18061779 52.7010497 6.11039827 55.1875 7.0625 C58.67355863 8.43221487 61.95782397 9.76907091 65 12 C65 12.66 65 13.32 65 14 C62.8939014 13.74462428 60.79011246 13.47014626 58.6875 13.1875 C57.51574219 13.03667969 56.34398437 12.88585938 55.13671875 12.73046875 C52 12 52 12 50.5625 10.46875 C47.98011171 8.04130501 44.68850694 8.42282702 41.3125 8.3125 C40.2596582 8.26125977 40.2596582 8.26125977 39.18554688 8.20898438 C37.45758613 8.12670053 35.72881928 8.0616676 34 8 C34 7.67 34 7.34 34 7 C36.64 7 39.28 7 42 7 C41.505 6.01 41.505 6.01 41 5 C27.95918782 0.68061847 13.56243937 1.27892302 0 1 C0 0.67 0 0.34 0 0 Z " fill="#8974E3" transform="translate(49,18)"/>
<path d="M0 0 C1.9375 1.6875 1.9375 1.6875 3 4 C2.92897215 7.4803645 2.61415498 9.29485909 0.3125 11.9375 C-2.89943934 13.41325591 -4.66474802 13.06444212 -8 12 C-9.9375 10.3125 -9.9375 10.3125 -11 8 C-10.92897215 4.5196355 -10.61415498 2.70514091 -8.3125 0.0625 C-5.10056066 -1.41325591 -3.33525198 -1.06444212 0 0 Z " fill="#6F4FDA" transform="translate(85,41)"/>
<path d="M0 0 C2.5 1.875 2.5 1.875 4 4 C3.67 5.32 3.34 6.64 3 8 C-2.94 8 -8.88 8 -15 8 C-15 6.35 -15 4.7 -15 3 C-9.85320259 -2.00769478 -6.67387945 -2.45879769 0 0 Z " fill="#6F48D3" transform="translate(97,74)"/>
<path d="M0 0 C0 0.66 0 1.32 0 2 C-0.55461914 2.08564209 -1.10923828 2.17128418 -1.68066406 2.25952148 C-4.20407536 2.65027558 -6.72703747 3.04385926 -9.25 3.4375 C-10.12269531 3.57220703 -10.99539062 3.70691406 -11.89453125 3.84570312 C-12.73886719 3.97783203 -13.58320312 4.10996094 -14.453125 4.24609375 C-15.22817383 4.36654053 -16.00322266 4.4869873 -16.80175781 4.61108398 C-18.99159507 4.97048135 -18.99159507 4.97048135 -21.0793457 5.52954102 C-24.00537974 6.246265 -26.93471374 6.32053785 -29.9375 6.5 C-34.0533339 6.74650984 -37.9765705 7.08384907 -42 8 C-42.66 6.68 -43.32 5.36 -44 4 C-40.31486114 1.54324076 -37.28915799 1.55640659 -33.0078125 1.3671875 C-32.22485809 1.32562531 -31.44190369 1.28406311 -30.63522339 1.24124146 C-28.13216889 1.11059718 -25.62868827 0.99280365 -23.125 0.875 C-21.4465727 0.7885699 -19.76818642 0.70133941 -18.08984375 0.61328125 C-5.01246635 -0.05798324 -5.01246635 -0.05798324 0 0 Z " fill="#AB74C0" transform="translate(54,95)"/>
<path d="M0 0 C3.99698189 1.37039379 6.95838787 3.0428771 10 6 C10.8125 8.75 10.8125 8.75 11 11 C7.57905758 13.28062828 6.31812778 13.21925007 2.3125 13.125 C0.82169922 13.09792969 0.82169922 13.09792969 -0.69921875 13.0703125 C-1.45847656 13.04710937 -2.21773438 13.02390625 -3 13 C-2.343621 8.51474352 -1.29925791 4.33085971 0 0 Z " fill="#7E4CC7" transform="translate(102,47)"/>
<path d="M0 0 C0.33 0.66 0.66 1.32 1 2 C3.3272568 2.59625062 3.3272568 2.59625062 6.25 2.9375 C7.98056641 3.17919922 7.98056641 3.17919922 9.74609375 3.42578125 C10.73585205 3.55847412 10.73585205 3.55847412 11.74560547 3.69384766 C15.30774971 4.17759564 18.86480627 4.69633815 22.42285156 5.20922852 C26.61436136 5.81231581 30.80711809 6.40653863 35 7 C32.61614498 11.6485173 32.61614498 11.6485173 30.28125 12.98046875 C26.7327853 13.01084944 23.7323415 11.63308565 20.5 10.3125 C19.07362783 9.75209277 17.64653518 9.1935161 16.21875 8.63671875 C15.15720703 8.2197876 15.15720703 8.2197876 14.07421875 7.79443359 C9.44428437 6.02115129 4.71811787 4.51909098 0 3 C0 2.01 0 1.02 0 0 Z " fill="#BE8CC3" transform="translate(79,97)"/>
<path d="M0 0 C0.928125 0.0825 1.85625 0.165 2.8125 0.25 C2.4825 1.57 2.1525 2.89 1.8125 4.25 C4.4525 4.25 7.0925 4.25 9.8125 4.25 C7.3499376 9.05199667 7.3499376 9.05199667 5.03125 9.90625 C2.50656043 10.29739909 0.1166211 10.34610686 -2.4375 10.3125 C-3.32953125 10.30347656 -4.2215625 10.29445313 -5.140625 10.28515625 C-5.81609375 10.27355469 -6.4915625 10.26195313 -7.1875 10.25 C-6.07688849 0.47661871 -6.07688849 0.47661871 0 0 Z " fill="#8D52BD" transform="translate(12.1875,55.75)"/>
<path d="M0 0 C7.36332797 -0.45546359 13.10629937 -0.10557079 19.84375 3.02734375 C21.93733195 4.07781888 21.93733195 4.07781888 24.109375 4.375 C26.77268491 5.25543303 27.38082177 6.6664381 28.75 9.0625 C29.17796875 9.79597656 29.6059375 10.52945312 30.046875 11.28515625 C30.36140625 11.85105469 30.6759375 12.41695312 31 13 C28.525 12.505 28.525 12.505 26 12 C26 11.34 26 10.68 26 10 C24.7315625 9.8453125 24.7315625 9.8453125 23.4375 9.6875 C19.64472481 8.92894496 16.51544702 7.59793046 13 6 C11.3357865 5.32723284 9.67013418 4.65793165 8 4 C8 3.34 8 2.68 8 2 C7.05125 2.04125 6.1025 2.0825 5.125 2.125 C2 2 2 2 0 0 Z " fill="#BDB2E9" transform="translate(87,16)"/>
<path d="M0 0 C7.42857143 -0.14285714 7.42857143 -0.14285714 11 1 C8.49526802 6.63564696 4.37029289 10.74471482 0 15 C-0.66 15.66 -1.32 16.32 -2 17 C-2.25287193 10.93107371 -1.69832609 5.83799592 0 0 Z " fill="#A870BF" transform="translate(2,45)"/>
<path d="M0 0 C2.660625 0.2784375 2.660625 0.2784375 5.375 0.5625 C4.715 4.1925 4.055 7.8225 3.375 11.5625 C-2.31769521 10.42396096 -2.31769521 10.42396096 -4.9375 7.75 C-5.44925781 7.24855469 -5.96101563 6.74710937 -6.48828125 6.23046875 C-7.625 4.5625 -7.625 4.5625 -7.625 0.5625 C-4.89657939 -0.80171031 -3.01546682 -0.31557211 0 0 Z " fill="#AC6DB7" transform="translate(122.625,71.4375)"/>
<path d="M0 0 C2.97 0 5.94 0 9 0 C8.34 2.97 7.68 5.94 7 9 C5.2300132 9.19532961 3.45895721 9.38098882 1.6875 9.5625 C0.70136719 9.66691406 -0.28476562 9.77132812 -1.30078125 9.87890625 C-4 10 -4 10 -7 9 C-6.8125 7.1875 -6.8125 7.1875 -6 5 C-3.5 3.375 -3.5 3.375 -1 2 C-0.67 1.34 -0.34 0.68 0 0 Z " fill="#7349D0" transform="translate(29,74)"/>
<path d="M0 0 C0.85464844 0.70769531 0.85464844 0.70769531 1.7265625 1.4296875 C10.72047241 7.64197579 26.45757479 5.65681665 37 6 C36.34 7.32 35.68 8.64 35 10 C22.94613996 9.66747972 11.72346172 7.73972203 0 5 C0 3.35 0 1.7 0 0 Z " fill="#B37FC2" transform="translate(80,94)"/>
<path d="M0 0 C5.86181863 0.40426335 9.2823519 1.2028686 14 5 C14.33 5.66 14.66 6.32 15 7 C11.78817851 8.90608098 9.46117397 9.22266247 5.75 9.125 C4.85796875 9.10695313 3.9659375 9.08890625 3.046875 9.0703125 C2.03367187 9.03550781 2.03367187 9.03550781 1 9 C0.67 6.03 0.34 3.06 0 0 Z " fill="#885ECE" transform="translate(102,29)"/>
<path d="M0 0 C10.60669092 3.0170976 20.76895117 6.91217353 31 11 C30.34 11.99 29.68 12.98 29 14 C25.20856623 13.40206779 22.26563613 12.28345387 18.875 10.5 C16.23115758 9.11780882 13.8364494 7.94548313 11 7 C11 6.34 11 5.68 11 5 C6.71 4.34 2.42 3.68 -2 3 C-1.34 2.01 -0.68 1.02 0 0 Z " fill="#C8A5D2" transform="translate(78,99)"/>
<path d="M0 0 C0 0.99 0 1.98 0 3 C-0.81984375 3.12117188 -1.6396875 3.24234375 -2.484375 3.3671875 C-3.56203125 3.53476563 -4.6396875 3.70234375 -5.75 3.875 C-6.81734375 4.03742188 -7.8846875 4.19984375 -8.984375 4.3671875 C-11.7103464 4.93921777 -13.58062457 5.68928911 -16 7 C-17.134375 7.309375 -18.26875 7.61875 -19.4375 7.9375 C-22.9929933 8.81466892 -22.9929933 8.81466892 -25.6875 10.75 C-26.8321875 11.36875 -26.8321875 11.36875 -28 12 C-30.3125 11.1875 -30.3125 11.1875 -32 10 C-30.0592995 6.118599 -24.54423246 5.52691757 -20.58984375 4.171875 C-13.91294947 1.99225772 -7.07247892 0 0 0 Z " fill="#D2BDDE" transform="translate(54,103)"/>
<path d="M0 0 C1.32 0 2.64 0 4 0 C5.69832609 5.83799592 6.25287193 10.93107371 6 17 C-0.9119171 11.59067358 -0.9119171 11.59067358 -2 8 C-2.25 4.875 -2.25 4.875 -2 2 C-1.34 1.34 -0.68 0.68 0 0 Z " fill="#AA72BE" transform="translate(122,45)"/>
<path d="M0 0 C-3.3871246 1.78051782 -6.87061827 3.1811065 -10.4375 4.5625 C-11.54996094 4.99691406 -12.66242187 5.43132812 -13.80859375 5.87890625 C-17 7 -17 7 -19.828125 7.5234375 C-20.90320313 7.75933594 -20.90320313 7.75933594 -22 8 C-23.36020151 9.96758273 -23.36020151 9.96758273 -24 12 C-26.475 11.01 -26.475 11.01 -29 10 C-25.172826 4.25923899 -20.48002196 3.48310362 -14 2 C-13.2265625 1.81179687 -12.453125 1.62359375 -11.65625 1.4296875 C-7.70170168 0.49377773 -4.09535666 -0.26421656 0 0 Z " fill="#D9CDE7" transform="translate(54,106)"/>
<path d="M0 0 C5.03713749 0.62964219 9.32221891 2.14801603 14 4 C15.49894618 4.56530223 16.99891291 5.12790746 18.5 5.6875 C19.655 6.120625 20.81 6.55375 22 7 C22 7.66 22 8.32 22 9 C24.97 9.495 24.97 9.495 28 10 C28.66 11.98 29.32 13.96 30 16 C27.03824877 15.38722388 25.61941217 14.74627478 23 13 C23 12.34 23 11.68 23 11 C22.28585938 10.72027344 21.57171875 10.44054688 20.8359375 10.15234375 C18.06163097 9.02504289 15.34546751 7.81360325 12.625 6.5625 C8.43977539 4.6482836 4.23964206 2.79007109 0 1 C0 0.67 0 0.34 0 0 Z " fill="#A18CE1" transform="translate(91,19)"/>
<path d="M0 0 C0.66 0.33 1.32 0.66 2 1 C0.9275 1.5775 -0.145 2.155 -1.25 2.75 C-4.33051876 4.50324114 -6.52816522 6.44842862 -9 9 C-14.55555556 13 -14.55555556 13 -17 13 C-17.33 13.99 -17.66 14.98 -18 16 C-19 14 -19 14 -18.43359375 12.125 C-15.71933086 6.33457249 -15.71933086 6.33457249 -12.3125 4.75 C-10.6728125 4.37875 -10.6728125 4.37875 -9 4 C-6.62742194 2.94774363 -4.29168887 1.83256454 -1.953125 0.70703125 C-0.98632812 0.35705078 -0.98632812 0.35705078 0 0 Z " fill="#9F84DB" transform="translate(24,23)"/>
<path d="M0 0 C0 0.66 0 1.32 0 2 C-0.93199219 2.15855469 -1.86398438 2.31710938 -2.82421875 2.48046875 C-11.68428649 4.10197761 -19.66896235 6.4842557 -28 10 C-29.66556896 10.66940442 -31.33186249 11.33702227 -33 12 C-33.33 11.01 -33.66 10.02 -34 9 C-33.14277344 8.74605469 -32.28554688 8.49210937 -31.40234375 8.23046875 C-24.20517818 6.13514265 -24.20517818 6.13514265 -17.25 3.375 C-11.75880315 1.05180133 -5.99747979 -0.38693418 0 0 Z " fill="#C9ABD5" transform="translate(54,101)"/>
<path d="M0 0 C0 0.33 0 0.66 0 1 C-1.19882812 1.25523438 -1.19882812 1.25523438 -2.421875 1.515625 C-10.14305106 3.21935868 -17.54245152 5.38721351 -25 8 C-26.99906499 8.66946517 -28.99882423 9.33687106 -31 10 C-27.83540802 6.36071923 -24.41254759 4.50425809 -20 2.75 C-19.34443115 2.48622559 -18.6888623 2.22245117 -18.01342773 1.95068359 C-11.98489779 -0.30664082 -6.40858375 -0.64443859 0 0 Z " fill="#8E7AE3" transform="translate(49,19)"/>
<path d="M0 0 C2.07588858 -0.00219852 4.1512551 -0.02042685 6.22705078 -0.03930664 C7.54060547 -0.04124023 8.85416016 -0.04317383 10.20751953 -0.04516602 C12.00406982 -0.05132935 12.00406982 -0.05132935 13.83691406 -0.05761719 C16.80030166 0.17364326 18.4590052 0.63025119 20.94970703 2.18530273 C20.94970703 2.51530273 20.94970703 2.84530273 20.94970703 3.18530273 C20.24072266 3.11311523 19.53173828 3.04092773 18.80126953 2.96655273 C6.2008948 1.86821499 -6.41319901 2.09265542 -19.05029297 2.18530273 C-19.05029297 1.85530273 -19.05029297 1.52530273 -19.05029297 1.18530273 C-12.68776906 -0.030331 -6.4591611 -0.00076767 0 0 Z " fill="#B8B0EC" transform="translate(66.05029296875,12.814697265625)"/>
<path d="M0 0 C-3.82320557 1.42258812 -6.91281305 2.24042276 -11 2 C-11 2.66 -11 3.32 -11 4 C-11.59167969 4.24234375 -12.18335937 4.4846875 -12.79296875 4.734375 C-16.54246996 6.32470178 -19.64352009 7.7068943 -22.8125 10.3125 C-23.534375 10.869375 -24.25625 11.42625 -25 12 C-27.13671875 11.60546875 -27.13671875 11.60546875 -29 11 C-21.55867042 4.91716928 -10.07819094 -3.09242503 0 0 Z " fill="#B8AAE7" transform="translate(39,17)"/>
<path d="M0 0 C2.64 0 5.28 0 8 0 C4.18786401 2.13001854 0.08792756 3.33989912 -4.0625 4.625 C-4.78244141 4.85445313 -5.50238281 5.08390625 -6.24414062 5.3203125 C-9.26493202 6.2627321 -11.81674867 7 -15 7 C-15 7.66 -15 8.32 -15 9 C-16.65 9 -18.3 9 -20 9 C-20 8.01 -20 7.02 -20 6 C-19.35933594 5.87882812 -18.71867187 5.75765625 -18.05859375 5.6328125 C-14.01240634 4.84890138 -10.01222121 4.06161152 -6.0625 2.875 C-3 2 -3 2 0 2 C0 1.34 0 0.68 0 0 Z " fill="#BD8EC6" transform="translate(37,100)"/>
<path d="M0 0 C2.875 1 2.875 1 4.25 3.0625 C4.45625 3.701875 4.6625 4.34125 4.875 5 C0.71361737 5.08159574 -3.0722484 4.98248524 -7.125 4 C-4.7645388 1.00403002 -3.91304326 0 0 0 Z " fill="#7A58D7" transform="translate(82.125,40)"/>
<path d="M0 0 C0.33 0.66 0.66 1.32 1 2 C4.0399648 2.69337792 4.0399648 2.69337792 7.5625 3.125 C9.35880859 3.37636719 9.35880859 3.37636719 11.19140625 3.6328125 C12.11824219 3.75398438 13.04507813 3.87515625 14 4 C14 4.66 14 5.32 14 6 C15.32 6.33 16.64 6.66 18 7 C13.9154674 8.72251754 10.63026304 7.07280563 6.75 5.5625 C6.1003125 5.31951172 5.450625 5.07652344 4.78125 4.82617188 C3.18383183 4.22714006 1.59139406 3.61485679 0 3 C0 2.01 0 1.02 0 0 Z " fill="#BC92CC" transform="translate(79,97)"/>
<path d="M0 0 C1.96259262 0.39611961 3.92007661 0.81761694 5.875 1.25 C7.51082031 1.59804688 7.51082031 1.59804688 9.1796875 1.953125 C12 3 12 3 13.3828125 5.109375 C13.58648437 5.73328125 13.79015625 6.3571875 14 7 C12.35 6.67 10.7 6.34 9 6 C9 5.34 9 4.68 9 4 C8.071875 3.896875 7.14375 3.79375 6.1875 3.6875 C2.85034764 2.96772204 2.16813468 2.42857128 0 0 Z " fill="#B4A2E3" transform="translate(104,22)"/>
<path d="M0 0 C5.28137429 0.51525603 8.57221156 2.25477117 13 5 C10.50935112 5.68707555 8.62113708 6 6 6 C3.9375 4.125 3.9375 4.125 2 2 C1.34 1.34 0.68 0.68 0 0 Z " fill="#8669DB" transform="translate(95,24)"/>
<path d="M0 0 C-1.23944276 0.86941494 -2.49207059 1.72005457 -3.75 2.5625 C-4.44609375 3.03816406 -5.1421875 3.51382812 -5.859375 4.00390625 C-8 5 -8 5 -10.265625 4.65234375 C-10.83796875 4.43707031 -11.4103125 4.22179687 -12 4 C-8.71298741 1.21868166 -4.24676932 -2.12338466 0 0 Z " fill="#A18BE0" transform="translate(26,24)"/>
<path d="M0 0 C0.86625 0.4640625 0.86625 0.4640625 1.75 0.9375 C3.91340309 2.09252028 3.91340309 2.09252028 6.125 2.3125 C8 3 8 3 9.25 5.5625 C9.4975 6.366875 9.745 7.17125 10 8 C9.34 8 8.68 8 8 8 C8 7.34 8 6.68 8 6 C7.236875 5.7525 6.47375 5.505 5.6875 5.25 C2.7635955 3.89004442 1.69995644 2.68414174 0 0 Z " fill="#9971CE" transform="translate(114,32)"/>
<path d="M0 0 C-3.75 3 -3.75 3 -6 3 C-6.33 3.99 -6.66 4.98 -7 6 C-7.33 5.34 -7.66 4.68 -8 4 C-6.19791982 -0.57451121 -4.66400339 -1.39920102 0 0 Z " fill="#9C78D2" transform="translate(13,33)"/>
<path d="M0 0 C2.9375 0.8125 2.9375 0.8125 6 2 C6.33 2.99 6.66 3.98 7 5 C4.03824877 4.38722388 2.61941217 3.74627478 0 2 C0 1.34 0 0.68 0 0 Z " fill="#9F7ED6" transform="translate(114,30)"/>
</svg>
