<svg width="100.725" height="18" viewBox="0 0 100.725 18" xmlns="http://www.w3.org/2000/svg"><g id="svgGroup" stroke-linecap="round" fill-rule="evenodd" font-size="9pt" stroke="#ffffff" stroke-width="0.15mm" fill="#000000" style="stroke:#ffffff;stroke-width:0.15mm;fill:#000000"><path d="M 0.525 13 L 1.025 13 A 0.668 0.668 0 0 1 1.184 13.018 A 0.446 0.446 0 0 1 1.413 13.15 Q 1.55 13.3 1.575 13.5 A 2.638 2.638 0 0 0 1.838 14.316 A 3.654 3.654 0 0 0 2.2 14.888 A 3.235 3.235 0 0 0 2.85 15.519 Q 3.165 15.752 3.562 15.949 A 5.884 5.884 0 0 0 3.75 16.038 A 4.659 4.659 0 0 0 4.682 16.337 Q 5.435 16.5 6.4 16.5 A 10.729 10.729 0 0 0 7.665 16.431 Q 8.99 16.273 9.778 15.755 A 2.833 2.833 0 0 0 9.975 15.613 A 2.837 2.837 0 0 0 11.087 13.546 A 3.749 3.749 0 0 0 11.1 13.225 Q 11.1 12.225 10.513 11.613 Q 10.089 11.171 9.346 10.794 A 8.168 8.168 0 0 0 8.725 10.513 Q 7.909 10.181 6.782 9.798 A 66.291 66.291 0 0 0 5.65 9.425 A 25.449 25.449 0 0 1 4.407 8.989 Q 3.812 8.761 3.311 8.529 A 12 12 0 0 1 2.725 8.238 Q 1.671 7.676 1.132 6.895 A 3.241 3.241 0 0 1 1.038 6.75 Q 0.57 5.989 0.509 4.849 A 6.555 6.555 0 0 1 0.5 4.5 Q 0.5 3.225 1.175 2.213 Q 1.85 1.2 3.138 0.6 Q 4.298 0.059 5.915 0.006 A 10.907 10.907 0 0 1 6.275 0 A 9.22 9.22 0 0 1 7.494 0.077 Q 8.139 0.163 8.693 0.346 A 5.544 5.544 0 0 1 8.85 0.4 A 6.236 6.236 0 0 1 9.842 0.857 A 4.762 4.762 0 0 1 10.675 1.463 A 5.38 5.38 0 0 1 11.347 2.195 A 4.32 4.32 0 0 1 11.775 2.888 Q 12.15 3.65 12.175 4.375 A 0.507 0.507 0 0 1 12.113 4.615 A 0.687 0.687 0 0 1 12.05 4.713 A 0.392 0.392 0 0 1 11.849 4.848 Q 11.762 4.875 11.65 4.875 L 11.15 4.875 A 0.41 0.41 0 0 1 11.057 4.863 Q 10.961 4.841 10.838 4.775 A 0.396 0.396 0 0 1 10.677 4.613 Q 10.642 4.549 10.62 4.467 A 0.955 0.955 0 0 1 10.6 4.375 A 2.766 2.766 0 0 0 9.642 2.591 A 3.89 3.89 0 0 0 9.288 2.313 Q 8.227 1.571 6.595 1.506 A 8.023 8.023 0 0 0 6.275 1.5 A 7.742 7.742 0 0 0 5.007 1.598 Q 4.312 1.713 3.744 1.965 A 4.125 4.125 0 0 0 3.25 2.225 A 2.363 2.363 0 0 0 2.117 3.946 A 3.539 3.539 0 0 0 2.075 4.5 Q 2.075 5.5 2.6 6.138 A 3.02 3.02 0 0 0 3.114 6.622 Q 3.372 6.817 3.699 6.996 A 6.811 6.811 0 0 0 4.25 7.263 Q 5.015 7.594 6.08 7.966 A 50.093 50.093 0 0 0 7.15 8.325 Q 8.567 8.779 9.613 9.232 A 15.169 15.169 0 0 1 10.25 9.525 Q 11.306 10.042 11.897 10.754 A 3.435 3.435 0 0 1 12.075 10.988 A 3.169 3.169 0 0 1 12.539 12.031 Q 12.675 12.57 12.675 13.225 Q 12.675 14.75 11.913 15.813 A 4.468 4.468 0 0 1 10.497 17.076 A 5.819 5.819 0 0 1 9.75 17.438 Q 8.485 17.946 6.772 17.995 A 12.979 12.979 0 0 1 6.4 18 Q 4.638 18 3.34 17.508 A 5.93 5.93 0 0 1 2.963 17.35 A 6.545 6.545 0 0 1 1.856 16.711 A 4.735 4.735 0 0 1 0.8 15.675 Q 0.05 14.65 0 13.5 A 0.477 0.477 0 0 1 0.14 13.16 A 0.627 0.627 0 0 1 0.15 13.15 A 0.506 0.506 0 0 1 0.511 13 A 0.665 0.665 0 0 1 0.525 13 Z M 16.95 17.75 L 16.525 17.75 A 0.676 0.676 0 0 1 16.352 17.729 A 0.492 0.492 0 0 1 16.125 17.6 A 0.502 0.502 0 0 1 15.986 17.326 A 0.716 0.716 0 0 1 15.975 17.2 L 15.975 0.55 A 0.676 0.676 0 0 1 15.996 0.377 A 0.492 0.492 0 0 1 16.125 0.15 A 0.502 0.502 0 0 1 16.399 0.011 A 0.716 0.716 0 0 1 16.525 0 L 16.95 0 A 0.676 0.676 0 0 1 17.123 0.021 A 0.492 0.492 0 0 1 17.35 0.15 A 0.502 0.502 0 0 1 17.489 0.424 A 0.716 0.716 0 0 1 17.5 0.55 L 17.5 6.475 Q 18.175 5.6 19.138 5.05 A 3.743 3.743 0 0 1 20.063 4.684 Q 20.508 4.569 21.036 4.526 A 8.172 8.172 0 0 1 21.7 4.5 Q 23.3 4.5 24.402 5.153 A 3.995 3.995 0 0 1 24.538 5.238 Q 25.675 5.975 26.238 7.238 A 6.452 6.452 0 0 1 26.734 9.04 A 8.202 8.202 0 0 1 26.8 10.1 L 26.8 17.2 A 0.676 0.676 0 0 1 26.779 17.373 A 0.492 0.492 0 0 1 26.65 17.6 A 0.502 0.502 0 0 1 26.376 17.739 A 0.716 0.716 0 0 1 26.25 17.75 L 25.825 17.75 A 0.676 0.676 0 0 1 25.652 17.729 A 0.492 0.492 0 0 1 25.425 17.6 A 0.502 0.502 0 0 1 25.286 17.326 A 0.716 0.716 0 0 1 25.275 17.2 L 25.275 10.225 Q 25.275 8.689 24.7 7.662 A 3.527 3.527 0 0 0 24.3 7.088 A 3.138 3.138 0 0 0 22.608 6.078 Q 22.088 5.952 21.47 5.95 A 6.108 6.108 0 0 0 21.45 5.95 A 4.499 4.499 0 0 0 20.145 6.131 A 3.533 3.533 0 0 0 18.588 7.088 Q 17.5 8.225 17.5 10.225 L 17.5 17.2 A 0.676 0.676 0 0 1 17.479 17.373 A 0.492 0.492 0 0 1 17.35 17.6 A 0.502 0.502 0 0 1 17.076 17.739 A 0.716 0.716 0 0 1 16.95 17.75 Z M 30.6 12.4 L 30.6 5.3 A 0.676 0.676 0 0 1 30.621 5.127 A 0.492 0.492 0 0 1 30.75 4.9 A 0.502 0.502 0 0 1 31.024 4.761 A 0.716 0.716 0 0 1 31.15 4.75 L 31.575 4.75 A 0.676 0.676 0 0 1 31.748 4.771 A 0.492 0.492 0 0 1 31.975 4.9 A 0.502 0.502 0 0 1 32.114 5.174 A 0.716 0.716 0 0 1 32.125 5.3 L 32.125 12.275 A 7.138 7.138 0 0 0 32.291 13.888 Q 32.803 16.086 34.896 16.469 A 5.304 5.304 0 0 0 35.85 16.55 A 4.495 4.495 0 0 0 37.13 16.376 A 3.484 3.484 0 0 0 38.7 15.413 Q 39.721 14.332 39.772 12.472 A 7.206 7.206 0 0 0 39.775 12.275 L 39.775 5.3 A 0.676 0.676 0 0 1 39.796 5.127 A 0.492 0.492 0 0 1 39.925 4.9 A 0.502 0.502 0 0 1 40.199 4.761 A 0.716 0.716 0 0 1 40.325 4.75 L 40.75 4.75 A 0.676 0.676 0 0 1 40.923 4.771 A 0.492 0.492 0 0 1 41.15 4.9 A 0.502 0.502 0 0 1 41.289 5.174 A 0.716 0.716 0 0 1 41.3 5.3 L 41.3 17.2 A 0.676 0.676 0 0 1 41.279 17.373 A 0.492 0.492 0 0 1 41.15 17.6 A 0.502 0.502 0 0 1 40.876 17.739 A 0.716 0.716 0 0 1 40.75 17.75 L 40.325 17.75 A 0.676 0.676 0 0 1 40.152 17.729 A 0.492 0.492 0 0 1 39.925 17.6 A 0.502 0.502 0 0 1 39.786 17.326 A 0.716 0.716 0 0 1 39.775 17.2 L 39.775 16.025 Q 39.1 16.9 38.163 17.45 A 3.528 3.528 0 0 1 37.29 17.806 Q 36.566 18 35.6 18 Q 34.116 18 33.079 17.438 A 3.851 3.851 0 0 1 32.788 17.263 Q 31.675 16.525 31.138 15.25 A 6.834 6.834 0 0 1 30.652 13.355 A 8.474 8.474 0 0 1 30.6 12.4 Z M 82.15 17.75 L 81.65 17.75 A 0.477 0.477 0 0 1 81.31 17.61 A 0.627 0.627 0 0 1 81.3 17.6 A 0.523 0.523 0 0 1 81.191 17.446 A 0.47 0.47 0 0 1 81.15 17.25 Q 81.15 17.133 81.194 16.994 A 1.236 1.236 0 0 1 81.2 16.975 L 87.525 0.75 A 1.147 1.147 0 0 1 87.609 0.58 Q 87.686 0.453 87.788 0.375 A 0.54 0.54 0 0 1 87.956 0.29 Q 88.032 0.266 88.125 0.256 A 1.238 1.238 0 0 1 88.25 0.25 L 89.1 0.25 Q 89.3 0.25 89.439 0.306 A 0.515 0.515 0 0 1 89.563 0.375 Q 89.707 0.486 89.802 0.697 A 1.312 1.312 0 0 1 89.825 0.75 L 96.15 16.975 A 1.074 1.074 0 0 1 96.184 17.102 Q 96.2 17.18 96.2 17.25 A 0.477 0.477 0 0 1 96.06 17.59 A 0.627 0.627 0 0 1 96.05 17.6 A 0.523 0.523 0 0 1 95.896 17.709 A 0.47 0.47 0 0 1 95.7 17.75 L 95.2 17.75 A 0.722 0.722 0 0 1 95.056 17.737 Q 94.972 17.72 94.908 17.681 A 0.372 0.372 0 0 1 94.825 17.613 Q 94.7 17.475 94.65 17.375 L 93.1 13.375 L 84.25 13.375 L 82.7 17.375 A 0.288 0.288 0 0 1 82.673 17.441 Q 82.632 17.518 82.538 17.613 A 0.449 0.449 0 0 1 82.331 17.728 Q 82.25 17.75 82.15 17.75 Z M 79.275 10.95 L 79.275 11.325 A 0.623 0.623 0 0 1 79.25 11.505 A 0.484 0.484 0 0 1 79.113 11.725 A 0.56 0.56 0 0 1 78.792 11.87 A 0.758 0.758 0 0 1 78.7 11.875 L 69.8 11.875 L 69.8 11.975 L 69.8 12.125 Q 69.85 13.25 70.325 14.263 Q 70.8 15.275 71.675 15.913 A 3.321 3.321 0 0 0 73.347 16.531 A 4.225 4.225 0 0 0 73.75 16.55 A 5.878 5.878 0 0 0 74.505 16.504 Q 74.89 16.454 75.215 16.35 A 2.994 2.994 0 0 0 75.538 16.225 Q 76.114 15.962 76.503 15.658 A 3.005 3.005 0 0 0 76.675 15.513 Q 77.093 15.132 77.221 14.932 A 0.743 0.743 0 0 0 77.225 14.925 A 3.672 3.672 0 0 1 77.319 14.795 Q 77.477 14.586 77.575 14.538 Q 77.7 14.475 77.975 14.475 L 78.375 14.475 A 0.615 0.615 0 0 1 78.602 14.516 A 0.571 0.571 0 0 1 78.763 14.613 Q 78.922 14.748 78.901 14.968 A 0.574 0.574 0 0 1 78.9 14.975 A 1.003 1.003 0 0 1 78.847 15.222 Q 78.769 15.455 78.578 15.742 A 4.026 4.026 0 0 1 78.513 15.838 A 3.754 3.754 0 0 1 78.122 16.299 Q 77.918 16.507 77.663 16.713 A 6.821 6.821 0 0 1 77.488 16.85 A 5.064 5.064 0 0 1 76.658 17.354 A 6.779 6.779 0 0 1 75.875 17.675 A 5.972 5.972 0 0 1 74.617 17.952 A 7.634 7.634 0 0 1 73.75 18 A 5.976 5.976 0 0 1 72.04 17.767 A 4.577 4.577 0 0 1 69.9 16.413 A 6.15 6.15 0 0 1 68.567 13.939 A 8.651 8.651 0 0 1 68.275 12.25 Q 68.251 11.892 68.25 11.307 A 30.464 30.464 0 0 1 68.25 11.25 A 26.777 26.777 0 0 1 68.252 10.953 Q 68.256 10.531 68.275 10.25 A 8.614 8.614 0 0 1 68.557 8.58 A 6.837 6.837 0 0 1 69.075 7.25 A 5.117 5.117 0 0 1 70.426 5.583 A 4.972 4.972 0 0 1 70.938 5.225 Q 72.125 4.5 73.75 4.5 A 6.586 6.586 0 0 1 75.157 4.643 A 4.837 4.837 0 0 1 76.725 5.275 A 4.891 4.891 0 0 1 78.392 7.063 A 6.081 6.081 0 0 1 78.613 7.5 A 7.036 7.036 0 0 1 79.129 9.196 Q 79.266 9.961 79.274 10.832 A 11.923 11.923 0 0 1 79.275 10.95 Z M 51.2 17.75 L 49.725 17.75 A 4.972 4.972 0 0 1 48.914 17.688 Q 48.477 17.616 48.124 17.459 A 2.419 2.419 0 0 1 47.675 17.2 A 2.848 2.848 0 0 1 46.667 15.824 A 3.526 3.526 0 0 1 46.625 15.7 A 6.365 6.365 0 0 1 46.375 14.493 A 8.211 8.211 0 0 1 46.325 13.575 L 46.325 6.2 L 44.375 6.2 A 0.676 0.676 0 0 1 44.202 6.179 A 0.492 0.492 0 0 1 43.975 6.05 A 0.502 0.502 0 0 1 43.836 5.776 A 0.716 0.716 0 0 1 43.825 5.65 L 43.825 5.3 A 0.676 0.676 0 0 1 43.846 5.127 A 0.492 0.492 0 0 1 43.975 4.9 A 0.502 0.502 0 0 1 44.249 4.761 A 0.716 0.716 0 0 1 44.375 4.75 L 46.325 4.75 L 46.325 0.55 A 0.676 0.676 0 0 1 46.346 0.377 A 0.492 0.492 0 0 1 46.475 0.15 A 0.502 0.502 0 0 1 46.749 0.011 A 0.716 0.716 0 0 1 46.875 0 L 47.3 0 A 0.676 0.676 0 0 1 47.473 0.021 A 0.492 0.492 0 0 1 47.7 0.15 A 0.502 0.502 0 0 1 47.839 0.424 A 0.716 0.716 0 0 1 47.85 0.55 L 47.85 4.75 L 50.95 4.75 A 0.676 0.676 0 0 1 51.123 4.771 A 0.492 0.492 0 0 1 51.35 4.9 A 0.502 0.502 0 0 1 51.489 5.174 A 0.716 0.716 0 0 1 51.5 5.3 L 51.5 5.65 A 0.676 0.676 0 0 1 51.479 5.823 A 0.492 0.492 0 0 1 51.35 6.05 A 0.502 0.502 0 0 1 51.076 6.189 A 0.716 0.716 0 0 1 50.95 6.2 L 47.85 6.2 L 47.85 13.475 Q 47.85 14.345 48.038 14.966 A 2.719 2.719 0 0 0 48.288 15.55 A 1.43 1.43 0 0 0 49.186 16.219 Q 49.444 16.29 49.759 16.299 A 3.251 3.251 0 0 0 49.85 16.3 L 51.2 16.3 A 0.676 0.676 0 0 1 51.373 16.321 A 0.492 0.492 0 0 1 51.6 16.45 A 0.502 0.502 0 0 1 51.739 16.724 A 0.716 0.716 0 0 1 51.75 16.85 L 51.75 17.2 A 0.676 0.676 0 0 1 51.729 17.373 A 0.492 0.492 0 0 1 51.6 17.6 A 0.502 0.502 0 0 1 51.326 17.739 A 0.716 0.716 0 0 1 51.2 17.75 Z M 60.175 17.75 L 58.7 17.75 A 4.972 4.972 0 0 1 57.889 17.688 Q 57.452 17.616 57.099 17.459 A 2.419 2.419 0 0 1 56.65 17.2 A 2.848 2.848 0 0 1 55.642 15.824 A 3.526 3.526 0 0 1 55.6 15.7 A 6.365 6.365 0 0 1 55.35 14.493 A 8.211 8.211 0 0 1 55.3 13.575 L 55.3 6.2 L 53.35 6.2 A 0.676 0.676 0 0 1 53.177 6.179 A 0.492 0.492 0 0 1 52.95 6.05 A 0.502 0.502 0 0 1 52.811 5.776 A 0.716 0.716 0 0 1 52.8 5.65 L 52.8 5.3 A 0.676 0.676 0 0 1 52.821 5.127 A 0.492 0.492 0 0 1 52.95 4.9 A 0.502 0.502 0 0 1 53.224 4.761 A 0.716 0.716 0 0 1 53.35 4.75 L 55.3 4.75 L 55.3 0.55 A 0.676 0.676 0 0 1 55.321 0.377 A 0.492 0.492 0 0 1 55.45 0.15 A 0.502 0.502 0 0 1 55.724 0.011 A 0.716 0.716 0 0 1 55.85 0 L 56.275 0 A 0.676 0.676 0 0 1 56.448 0.021 A 0.492 0.492 0 0 1 56.675 0.15 A 0.502 0.502 0 0 1 56.814 0.424 A 0.716 0.716 0 0 1 56.825 0.55 L 56.825 4.75 L 59.925 4.75 A 0.676 0.676 0 0 1 60.098 4.771 A 0.492 0.492 0 0 1 60.325 4.9 A 0.502 0.502 0 0 1 60.464 5.174 A 0.716 0.716 0 0 1 60.475 5.3 L 60.475 5.65 A 0.676 0.676 0 0 1 60.454 5.823 A 0.492 0.492 0 0 1 60.325 6.05 A 0.502 0.502 0 0 1 60.051 6.189 A 0.716 0.716 0 0 1 59.925 6.2 L 56.825 6.2 L 56.825 13.475 Q 56.825 14.345 57.013 14.966 A 2.719 2.719 0 0 0 57.263 15.55 A 1.43 1.43 0 0 0 58.161 16.219 Q 58.419 16.29 58.734 16.299 A 3.251 3.251 0 0 0 58.825 16.3 L 60.175 16.3 A 0.676 0.676 0 0 1 60.348 16.321 A 0.492 0.492 0 0 1 60.575 16.45 A 0.502 0.502 0 0 1 60.714 16.724 A 0.716 0.716 0 0 1 60.725 16.85 L 60.725 17.2 A 0.676 0.676 0 0 1 60.704 17.373 A 0.492 0.492 0 0 1 60.575 17.6 A 0.502 0.502 0 0 1 60.301 17.739 A 0.716 0.716 0 0 1 60.175 17.75 Z M 64.3 17.75 L 63.875 17.75 A 0.676 0.676 0 0 1 63.702 17.729 A 0.492 0.492 0 0 1 63.475 17.6 A 0.502 0.502 0 0 1 63.336 17.326 A 0.716 0.716 0 0 1 63.325 17.2 L 63.325 0.55 A 0.676 0.676 0 0 1 63.346 0.377 A 0.492 0.492 0 0 1 63.475 0.15 A 0.502 0.502 0 0 1 63.749 0.011 A 0.716 0.716 0 0 1 63.875 0 L 64.3 0 A 0.676 0.676 0 0 1 64.473 0.021 A 0.492 0.492 0 0 1 64.7 0.15 A 0.502 0.502 0 0 1 64.839 0.424 A 0.716 0.716 0 0 1 64.85 0.55 L 64.85 17.2 A 0.676 0.676 0 0 1 64.829 17.373 A 0.492 0.492 0 0 1 64.7 17.6 A 0.502 0.502 0 0 1 64.426 17.739 A 0.716 0.716 0 0 1 64.3 17.75 Z M 100.175 17.75 L 99.7 17.75 A 0.676 0.676 0 0 1 99.527 17.729 A 0.492 0.492 0 0 1 99.3 17.6 A 0.502 0.502 0 0 1 99.161 17.326 A 0.716 0.716 0 0 1 99.15 17.2 L 99.15 0.8 A 0.676 0.676 0 0 1 99.171 0.627 A 0.492 0.492 0 0 1 99.3 0.4 A 0.502 0.502 0 0 1 99.574 0.261 A 0.716 0.716 0 0 1 99.7 0.25 L 100.175 0.25 A 0.676 0.676 0 0 1 100.348 0.271 A 0.492 0.492 0 0 1 100.575 0.4 A 0.502 0.502 0 0 1 100.714 0.674 A 0.716 0.716 0 0 1 100.725 0.8 L 100.725 17.2 A 0.676 0.676 0 0 1 100.704 17.373 A 0.492 0.492 0 0 1 100.575 17.6 A 0.502 0.502 0 0 1 100.301 17.739 A 0.716 0.716 0 0 1 100.175 17.75 Z M 88.675 2.025 L 84.85 11.875 L 92.5 11.875 L 88.675 2.025 Z M 69.8 10.375 L 69.8 10.475 L 77.75 10.475 L 77.75 10.375 A 5.654 5.654 0 0 0 77.6 9.048 A 4.72 4.72 0 0 0 77.275 8.125 Q 76.8 7.125 75.9 6.538 A 3.582 3.582 0 0 0 74.466 6.003 A 4.722 4.722 0 0 0 73.75 5.95 A 4.439 4.439 0 0 0 72.696 6.07 A 3.409 3.409 0 0 0 71.613 6.538 Q 70.725 7.125 70.263 8.125 A 5.014 5.014 0 0 0 69.837 9.689 A 6.231 6.231 0 0 0 69.8 10.375 Z" vector-effect="non-scaling-stroke"/></g></svg>